<svg width="36" height="36" viewBox="0 0 36 36" fill="none" xmlns="http://www.w3.org/2000/svg">
<rect width="36" height="36" rx="18" fill="white"/>
<g clip-path="url(#clip0_2184_24528)">
<path fill-rule="evenodd" clip-rule="evenodd" d="M15.375 18.0002C15.375 19.4498 16.5503 20.6257 17.9991 20.6257C19.448 20.6257 20.6231 19.4498 20.6231 18.0002C20.6231 16.5497 19.448 15.3748 17.9991 15.3748C16.5503 15.3748 15.375 16.5497 15.375 18.0002ZM20.9979 14.062C20.9979 13.5444 21.4178 13.1243 21.9351 13.1243C22.4534 13.1243 22.8732 13.5444 22.8732 14.062C22.8732 14.5796 22.4534 14.9997 21.9351 14.9997C21.4178 14.9997 20.9979 14.5796 20.9979 14.062ZM14.2505 18.0002C14.2505 15.9289 15.929 14.2495 17.9991 14.2495C20.0693 14.2495 21.7476 15.9289 21.7476 18.0002C21.7476 20.0716 20.0693 21.751 17.9991 21.751C15.929 21.751 14.2505 20.0716 14.2505 18.0002ZM14.6975 10.4998C12.379 10.4998 10.5 12.3789 10.5 14.6968V21.3028C10.5 23.6207 12.379 25.4998 14.6975 25.4998H21.3026C23.621 25.4998 25.5 23.6207 25.5 21.3028V14.6968C25.5 12.3789 23.621 10.4998 21.3026 10.4998H14.6975Z" fill="#8C9BAA"/>
</g>
<defs>
<clipPath id="clip0_2184_24528">
<rect width="36" height="36" fill="white"/>
</clipPath>
</defs>
</svg>
