<svg width="36" height="36" viewBox="0 0 36 36" fill="none" xmlns="http://www.w3.org/2000/svg">
<rect width="36" height="36" rx="18" fill="white"/>
<g clip-path="url(#clip0_2184_24524)">
<path fill-rule="evenodd" clip-rule="evenodd" d="M10.5 9C10.5 8.17214 11.1699 7.50024 12.0007 7.50024C12.8281 7.50024 13.5 8.17214 13.5 9C13.5 9.82835 12.8281 10.5002 12.0007 10.5002C11.1699 10.5002 10.5 9.82835 10.5 9ZM27 25.5002H24V19.5002C24 18.0002 24 15.7502 21.75 15.7502C19.5 15.7502 19.5 17.8817 19.5 19.5002V25.5002H16.5V13.5002H19.5V15.0002C19.5 15.0002 21 13.5002 23.25 13.5002C25.5 13.5002 27 15.0322 27 18.7502V25.5002ZM13.5 25.5002H10.5V13.5002H13.5V25.5002Z" fill="#8C9BAA"/>
</g>
<defs>
<clipPath id="clip0_2184_24524">
<rect width="36" height="36" fill="white"/>
</clipPath>
</defs>
</svg>
